<svg width="30" height="20" viewBox="0 0 30 20" fill="none" xmlns="http://www.w3.org/2000/svg">
<g clip-path="url(#clip0_136_19194)">
<rect width="30" height="20" rx="4" fill="white"/>
<g clip-path="url(#clip1_136_19194)">
<path d="M0.000244141 -7.62939e-05H30.0002V20.0001H0.000244141V-7.62939e-05Z" fill="white"/>
<path d="M16.8752 -0.00025177H13.1252V8.12471H0.000244141V11.8747H13.1252V19.9997H16.8752V11.8747H30.0002V8.12471H16.8752V-0.00025177Z" fill="#D80027"/>
<path d="M23.074 13.4779L30.0006 17.3261V13.4779H23.074ZM18.2615 13.4779L30.0006 19.9996V18.1554L21.5811 13.4779H18.2615ZM26.8737 19.9996L18.2615 15.2146V19.9996H26.8737Z" fill="#0052B4"/>
<path d="M18.2611 13.478L30.0002 19.9997V18.1555L21.5807 13.478H18.2611Z" fill="white"/>
<path d="M18.2611 13.478L30.0002 19.9997V18.1555L21.5807 13.478H18.2611Z" fill="#D80027"/>
<path d="M5.29394 13.4776L0.000518799 16.4185V13.4776H5.29394ZM11.7397 14.307V19.9994H1.49413L11.7397 14.307Z" fill="#0052B4"/>
<path d="M8.41976 13.478L0.000244141 18.1555V19.9997L11.7394 13.478H8.41976Z" fill="#D80027"/>
<path d="M6.92718 6.5217L0.000518799 2.6735V6.5217H6.92718ZM11.7397 6.5217L0.000518799 -1.52588e-05V1.84416L8.42003 6.5217H11.7397ZM3.12743 -1.52588e-05L11.7397 4.78499V-1.52588e-05H3.12743Z" fill="#0052B4"/>
<path d="M11.7394 6.52147L0.000244141 -0.00025177V1.84393L8.41976 6.52147H11.7394Z" fill="white"/>
<path d="M11.7394 6.52147L0.000244141 -0.00025177V1.84393L8.41976 6.52147H11.7394Z" fill="#D80027"/>
<path d="M24.7072 6.5214L30.0006 3.58058V6.5214H24.7072ZM18.2615 5.69206V-0.00038147H28.507L18.2615 5.69206Z" fill="#0052B4"/>
<path d="M21.5807 6.52147L30.0002 1.84393V-0.00025177L18.2611 6.52147H21.5807Z" fill="#D80027"/>
</g>
</g>
<defs>
<clipPath id="clip0_136_19194">
<rect width="30" height="20" rx="4" fill="white"/>
</clipPath>
<clipPath id="clip1_136_19194">
<rect width="30" height="20" fill="white"/>
</clipPath>
</defs>
</svg>
