<svg width="25" height="17" viewBox="0 0 25 17" fill="none" xmlns="http://www.w3.org/2000/svg">
<path d="M0.886364 17L1.72727 12.0909C1.9697 10.697 2.47727 9.27273 3.25 7.81818C4.03788 6.36364 4.98485 4.99242 6.09091 3.70454C7.21212 2.41666 8.37879 1.34091 9.59091 0.477272L13.4091 3C12.3333 4.33333 11.4015 5.72727 10.6136 7.18182C9.82576 8.63636 9.28788 10.2576 9 12.0455L8.15909 17H0.886364ZM12.3636 17L13.2045 12.0909C13.447 10.697 13.9545 9.27273 14.7273 7.81818C15.5152 6.36364 16.4621 4.99242 17.5682 3.70454C18.6894 2.41666 19.8561 1.34091 21.0682 0.477272L24.8864 3C23.8106 4.33333 22.8788 5.72727 22.0909 7.18182C21.303 8.63636 20.7652 10.2576 20.4773 12.0455L19.6364 17H12.3636Z" fill="#919191"/>
</svg>
