<svg width="30" height="21" viewBox="0 0 30 21" fill="none" xmlns="http://www.w3.org/2000/svg">
<g clip-path="url(#clip0_134_42209)">
<rect y="0.5" width="30" height="20" rx="4" fill="white"/>
<g clip-path="url(#clip1_134_42209)">
<path d="M0 0.499939H30V20.5002H0V0.499939Z" fill="white"/>
<path d="M16.8755 0.499756H13.1255V8.62472H0.000488281V12.3747H13.1255V20.4997H16.8755V12.3747H30.0005V8.62472H16.8755V0.499756Z" fill="#D80027"/>
<path d="M23.0742 13.9779L30.0009 17.8261V13.9779H23.0742ZM18.2617 13.9779L30.0009 20.4996V18.6554L21.5813 13.9779H18.2617ZM26.8739 20.4996L18.2617 15.7146V20.4996H26.8739Z" fill="#0052B4"/>
<path d="M18.2612 13.978L30.0004 20.4997V18.6555L21.5809 13.978H18.2612Z" fill="white"/>
<path d="M18.2612 13.978L30.0004 20.4997V18.6555L21.5809 13.978H18.2612Z" fill="#D80027"/>
<path d="M5.29391 13.9777L0.000488281 16.9185V13.9777H5.29391ZM11.7396 14.807V20.4994H1.4941L11.7396 14.807Z" fill="#0052B4"/>
<path d="M8.42 13.978L0.000488281 18.6555V20.4997L11.7396 13.978H8.42Z" fill="#D80027"/>
<path d="M6.92715 7.02172L0.000488281 3.17352V7.02172H6.92715ZM11.7396 7.02172L0.000488281 0.5V2.34418L8.42 7.02172H11.7396ZM3.1274 0.5L11.7396 5.285V0.5H3.1274Z" fill="#0052B4"/>
<path d="M11.7396 7.02147L0.000488281 0.499756V2.34394L8.42 7.02147H11.7396Z" fill="white"/>
<path d="M11.7396 7.02147L0.000488281 0.499756V2.34394L8.42 7.02147H11.7396Z" fill="#D80027"/>
<path d="M24.7074 7.02141L30.0009 4.08059V7.02141H24.7074ZM18.2617 6.19208V0.499634H28.5072L18.2617 6.19208Z" fill="#0052B4"/>
<path d="M21.5809 7.02147L30.0004 2.34394V0.499756L18.2612 7.02147H21.5809Z" fill="#D80027"/>
</g>
</g>
<defs>
<clipPath id="clip0_134_42209">
<rect y="0.5" width="30" height="20" rx="4" fill="white"/>
</clipPath>
<clipPath id="clip1_134_42209">
<rect width="30" height="20" fill="white" transform="translate(0 0.5)"/>
</clipPath>
</defs>
</svg>
