<svg width="30" height="21" viewBox="0 0 30 21" fill="none" xmlns="http://www.w3.org/2000/svg">
<g clip-path="url(#clip0_134_42226)">
<rect y="0.5" width="30" height="20" rx="4" fill="white"/>
<g clip-path="url(#clip1_134_42226)">
<path d="M0 0.5H30V20.5002H0V0.5Z" fill="#FFDA44"/>
<path d="M22.4927 20.4997L15 10.2824L16.5719 20.4997H22.4927ZM7.82607 0.499817L15 10.2824L13.495 0.499817H7.82607ZM13.428 20.4997L15 10.2824L7.50727 20.4997H13.428ZM0 0.499817V7.97462L15 10.2824L1.66014 0.499817H0ZM0 20.4997H1.06711L15 10.2824L0 12.5901V20.4997ZM15 10.2824L30 7.97462V0.499817H28.34L15 10.2824ZM16.505 0.499817L15 10.2824L22.1739 0.499817H16.505ZM30 20.4997V12.5901L15 10.2824L28.9328 20.4997H30Z" fill="#D80027"/>
<path d="M15 13.7607C16.9209 13.7607 18.4781 12.2035 18.4781 10.2826C18.4781 8.36175 16.9209 6.80457 15 6.80457C13.0792 6.80457 11.522 8.36175 11.522 10.2826C11.522 12.2035 13.0792 13.7607 15 13.7607Z" fill="#D80027"/>
<path d="M14.9998 12.8914C16.4406 12.8914 17.6085 11.7234 17.6085 10.2827C17.6085 8.84191 16.4406 7.67395 14.9998 7.67395C13.5591 7.67395 12.3911 8.84191 12.3911 10.2827C12.3911 11.7234 13.5591 12.8914 14.9998 12.8914Z" fill="#FFDA44"/>
</g>
</g>
<defs>
<clipPath id="clip0_134_42226">
<rect y="0.5" width="30" height="20" rx="4" fill="white"/>
</clipPath>
<clipPath id="clip1_134_42226">
<rect width="30" height="20" fill="white" transform="translate(0 0.5)"/>
</clipPath>
</defs>
</svg>
