<svg width="30" height="21" viewBox="0 0 30 21" fill="none" xmlns="http://www.w3.org/2000/svg">
<g clip-path="url(#clip0_134_42260)">
<rect y="0.5" width="30" height="20" rx="4" fill="white"/>
<g clip-path="url(#clip1_134_42260)">
<path d="M-0.000488281 0.499817H29.9995V20.4998H-0.000488281V0.499817Z" fill="white"/>
<path d="M-0.000488281 0.499634H29.9995V1.92653H-0.000488281V0.499634ZM-0.000488281 3.35928H29.9995V4.78618H-0.000488281V3.35928ZM-0.000488281 6.21308H29.9995V7.63998H-0.000488281V6.21308ZM-0.000488281 9.07273H29.9995V10.4996H-0.000488281V9.07273ZM-0.000488281 11.9265H29.9995V13.3534H-0.000488281V11.9265ZM-0.000488281 14.7862H29.9995V16.2131H-0.000488281V14.7862ZM-0.000488281 17.64H29.9995V19.0669H-0.000488281V17.64Z" fill="#CC0000"/>
<path d="M-0.000488281 0.499817H14.9995V11.9267H-0.000488281V0.499817Z" fill="#000066"/>
<path d="M8.96486 2.96185C7.16954 2.29518 5.17538 3.20746 4.50872 5.00279C3.84205 6.79811 4.75433 8.79226 6.54965 9.45893C7.32743 9.75132 8.18708 9.75132 8.97071 9.45893C7.17538 10.8917 4.56135 10.6051 3.12275 8.8098C1.68416 7.01448 1.97655 4.40045 3.77188 2.96185C5.29234 1.75132 7.45024 1.75132 8.96486 2.96185ZM10.5263 7.34782L9.32158 8.71039L9.63737 6.92091L7.82451 6.82735L9.421 5.956L8.36252 4.47647L10.035 5.17822L10.5263 3.42969L11.0175 5.17822L12.69 4.47647L11.6374 5.96185L13.2339 6.8332L11.421 6.92676L11.7368 8.71624L10.5263 7.34782Z" fill="#FFCC00"/>
</g>
</g>
<defs>
<clipPath id="clip0_134_42260">
<rect y="0.5" width="30" height="20" rx="4" fill="white"/>
</clipPath>
<clipPath id="clip1_134_42260">
<rect width="30" height="20" fill="white" transform="translate(0 0.5)"/>
</clipPath>
</defs>
</svg>
