<svg width="30" height="21" viewBox="0 0 30 21" fill="none" xmlns="http://www.w3.org/2000/svg">
<g clip-path="url(#clip0_134_42214)">
<rect y="0.5" width="30" height="20" rx="4" fill="white"/>
<g clip-path="url(#clip1_134_42214)">
<path d="M0.000488281 0.500488H30.0005V20.5001H0.000488281V0.500488Z" fill="white"/>
<path d="M0.000488281 7.02222H30.0005V13.9783H0.000488281V7.02222Z" fill="#0052B4"/>
<path d="M0.000488281 13.9783H30.0005V20.5H0.000488281V13.9783Z" fill="#D80027"/>
<path d="M7.58643 6.15253V11.141C7.58643 13.9786 11.2935 14.848 11.2935 14.848C11.2935 14.848 15.0004 13.9785 15.0004 11.141V6.15253H7.58643Z" fill="white"/>
<path d="M8.5625 6.29877V11.1C8.5625 11.4206 8.63369 11.7234 8.77478 12.0073H13.8121C13.9532 11.7235 14.0244 11.4207 14.0244 11.1V6.29877H8.5625Z" fill="#D80027"/>
<path d="M12.9673 9.64636H11.712V8.80947H12.5489V7.97257H11.712V7.13562H10.8751V7.97257H10.0382V8.80947H10.8751V9.64636H9.61963V10.4833H10.8751V11.3202H11.712V10.4833H12.9673V9.64636Z" fill="white"/>
<path d="M9.91631 13.1755C10.4556 13.5144 11.0097 13.7112 11.2934 13.7987C11.5771 13.7112 12.1312 13.5144 12.6704 13.1755C13.2143 12.8337 13.5956 12.4428 13.8121 12.0072C13.5652 11.8322 13.2699 11.7383 12.9673 11.7387C12.8527 11.7387 12.7413 11.7523 12.6344 11.7772C12.4075 11.2618 11.8927 10.9018 11.2935 10.9018C10.6943 10.9018 10.1795 11.2618 9.95264 11.7772C9.84349 11.7517 9.73179 11.7388 9.61971 11.7387C9.31706 11.7383 9.0218 11.8322 8.7749 12.0072C8.99117 12.4428 9.37244 12.8337 9.91631 13.1755Z" fill="#0052B4"/>
</g>
</g>
<defs>
<clipPath id="clip0_134_42214">
<rect y="0.5" width="30" height="20" rx="4" fill="white"/>
</clipPath>
<clipPath id="clip1_134_42214">
<rect width="30" height="20" fill="white" transform="translate(0 0.5)"/>
</clipPath>
</defs>
</svg>
