<svg width="30" height="21" viewBox="0 0 30 21" fill="none" xmlns="http://www.w3.org/2000/svg">
<g clip-path="url(#clip0_134_42222)">
<rect y="0.5" width="30" height="20" rx="4" fill="white"/>
<g clip-path="url(#clip1_134_42222)">
<path d="M0 0.5H30V20.5H0V0.5Z" fill="white"/>
<path d="M19.9181 7.65813H16.6374L15 4.81603L13.3626 7.65813H10.0819L11.7193 10.5002L10.0819 13.3423H13.3626L15 16.1844L16.6374 13.3423H19.9181L18.2807 10.5002L19.9181 7.65813ZM17.1462 10.5002L16.1404 12.4418H13.8655L12.8538 10.5002L13.8596 8.55871H16.1345L17.1462 10.5002ZM15 6.3014L15.6959 7.66398H14.2982L15 6.3014ZM11.5906 8.55871H12.9883L12.3567 9.78679L11.5906 8.55871ZM11.5906 12.4418L12.3509 11.1494L13.0468 12.4418H11.5906ZM15 14.6347L14.3041 13.3423H15.7018L15 14.6347ZM18.4737 12.4418H17.0117L17.7076 11.1494L18.4737 12.4418ZM16.9474 8.55871H18.4737L17.7134 9.85111L16.9474 8.55871ZM0 1.74585H29.9415V4.24293H0V1.74585ZM0 16.7166H29.9415V19.2137H0V16.7166Z" fill="#2E52B2"/>
</g>
</g>
<defs>
<clipPath id="clip0_134_42222">
<rect y="0.5" width="30" height="20" rx="4" fill="white"/>
</clipPath>
<clipPath id="clip1_134_42222">
<rect width="30" height="20" fill="white" transform="translate(0 0.5)"/>
</clipPath>
</defs>
</svg>
