<svg width="30" height="21" viewBox="0 0 30 21" fill="none" xmlns="http://www.w3.org/2000/svg">
<g clip-path="url(#clip0_134_42247)">
<rect y="0.5" width="30" height="20" rx="4" fill="white"/>
<g clip-path="url(#clip1_134_42247)">
<path d="M0.000488281 0.5H30.0005V20.5H0.000488281V0.5Z" fill="#D80027"/>
<path d="M13.263 14.4883L12.6958 13.576L11.649 13.8333L12.3449 13.0087L11.7776 12.0965L12.7776 12.5L13.4677 11.6754L13.3917 12.7514L14.3917 13.1549L13.3449 13.4123L13.263 14.4883ZM16.994 5.29529L16.4034 6.19588L17.0817 7.03214L16.0466 6.75143L15.456 7.65787L15.3975 6.58184L14.3624 6.30114L15.3683 5.91518L15.3098 4.83915L15.9881 5.67541L16.994 5.29529ZM13.8127 1.98535L13.6958 3.05553L14.6782 3.49997L13.6256 3.72219L13.5086 4.79237L12.9706 3.8567L11.9238 4.07892L12.6431 3.27775L12.1051 2.34792L13.0876 2.78652L13.8127 1.98535ZM17.1227 9.96196L16.2513 10.5994L16.5905 11.6228L15.7191 10.9912L14.8478 11.6345L15.1753 10.6052L14.3039 9.9795L15.38 9.97366L15.7074 8.94442L16.0466 9.96781L17.1227 9.96196ZM6.72499 3.20757L7.73669 6.33623H11.0232L8.36827 8.26021L9.37996 11.3889L6.72499 9.45904L4.06417 11.3889L5.08172 8.26021L2.4209 6.33623H5.7133L6.72499 3.20757Z" fill="#FFDA44"/>
</g>
</g>
<defs>
<clipPath id="clip0_134_42247">
<rect y="0.5" width="30" height="20" rx="4" fill="white"/>
</clipPath>
<clipPath id="clip1_134_42247">
<rect width="30" height="20" fill="white" transform="translate(0 0.5)"/>
</clipPath>
</defs>
</svg>
