<svg width="30" height="20" viewBox="0 0 30 20" fill="none" xmlns="http://www.w3.org/2000/svg">
<g clip-path="url(#clip0_536_13501)">
<g clip-path="url(#clip1_536_13501)">
<path d="M0 -3.05176e-05H30V20H0V-3.05176e-05Z" fill="white"/>
<path d="M0 -6.10352e-05H30V1.53795H0V-6.10352e-05ZM0 3.07596H30V4.61397H0V3.07596ZM0 6.15199H30V7.69H0V6.15199ZM0 9.22801H30V10.766H0V9.22801ZM0 12.3099H30V13.8479H0V12.3099ZM0 15.3859H30V16.9239H0V15.3859ZM0 18.4619H30V19.9999H0V18.4619Z" fill="#D80027"/>
<path d="M0 -3.05176e-05H15V10.7661H0V-3.05176e-05Z" fill="#2E52B2"/>
<path d="M2.79636 8.12285L2.56244 7.37431L2.30513 8.12285H1.5332L2.15893 8.57314L1.92502 9.32168L2.56244 8.85969L3.18233 9.32168L2.94256 8.57314L3.57999 8.12285H2.79636ZM6.08876 8.12285L5.84899 7.37431L5.60338 8.12285H4.83145L5.45718 8.57314L5.22326 9.32168L5.84899 8.85969L6.48057 9.32168L6.24665 8.57314L6.87238 8.12285H6.08876ZM9.39285 8.12285L9.14139 7.37431L8.90747 8.12285H8.118L8.76127 8.57314L8.51566 9.32168L9.14139 8.85969L9.78467 9.32168L9.53905 8.57314L10.1648 8.12285H9.39285ZM12.6794 8.12285L12.4455 7.37431L12.1999 8.12285H11.4221L12.0537 8.57314L11.8198 9.32168L12.4455 8.85969L13.0771 9.32168L12.8256 8.57314L13.4689 8.12285H12.6794ZM5.84899 4.40355L5.60338 5.15209H4.83145L5.45718 5.61408L5.22326 6.35092L5.84899 5.89478L6.48057 6.35092L6.24665 5.61408L6.87238 5.15209H6.08876L5.84899 4.40355ZM2.56244 4.40355L2.30513 5.15209H1.5332L2.15893 5.61408L1.92502 6.35092L2.56244 5.89478L3.18233 6.35092L2.94256 5.61408L3.57999 5.15209H2.79636L2.56244 4.40355ZM9.14139 4.40355L8.90747 5.15209H8.118L8.76127 5.61408L8.51566 6.35092L9.14139 5.89478L9.78467 6.35092L9.53905 5.61408L10.1648 5.15209H9.39285L9.14139 4.40355ZM12.4455 4.40355L12.1999 5.15209H11.4221L12.0537 5.61408L11.8198 6.35092L12.4455 5.89478L13.0771 6.35092L12.8256 5.61408L13.4689 5.15209H12.6794L12.4455 4.40355ZM2.56244 1.44449L2.30513 2.18133H1.5332L2.15893 2.64332L1.92502 3.38601L2.56244 2.92402L3.18233 3.38601L2.94256 2.64332L3.57999 2.18133H2.79636L2.56244 1.44449ZM5.84899 1.44449L5.60338 2.18133H4.83145L5.45718 2.64332L5.22326 3.38601L5.84899 2.92402L6.48057 3.38601L6.24665 2.64332L6.87238 2.18133H6.08876L5.84899 1.44449ZM9.14139 1.44449L8.90747 2.18133H8.118L8.76127 2.64332L8.51566 3.38601L9.14139 2.92402L9.78467 3.38601L9.53905 2.64332L10.1648 2.18133H9.39285L9.14139 1.44449ZM12.4455 1.44449L12.1999 2.18133H11.4221L12.0537 2.64332L11.8198 3.38601L12.4455 2.92402L13.0771 3.38601L12.8256 2.64332L13.4689 2.18133H12.6794L12.4455 1.44449Z" fill="white"/>
</g>
</g>
<defs>
<clipPath id="clip0_536_13501">
<rect width="30" height="20" rx="4" fill="white"/>
</clipPath>
<clipPath id="clip1_536_13501">
<rect width="30" height="20" fill="white"/>
</clipPath>
</defs>
</svg>
