<svg width="30" height="21" viewBox="0 0 30 21" fill="none" xmlns="http://www.w3.org/2000/svg">
<g clip-path="url(#clip0_134_42230)">
<rect y="0.5" width="30" height="20" rx="4" fill="white"/>
<g clip-path="url(#clip1_134_42230)">
<path d="M0.000488281 0.5H30.0005V20.5H0.000488281V0.5Z" fill="white"/>
<path d="M0.000976562 0.499939H30.001V2.03795H0.000976562V0.499939ZM0.000976562 3.57596H30.001V5.11397H0.000976562V3.57596ZM0.000976562 6.65199H30.001V8.19H0.000976562V6.65199ZM0.000976562 9.72801H30.001V11.266H0.000976562V9.72801ZM0.000976562 12.8099H30.001V14.3479H0.000976562V12.8099ZM0.000976562 15.8859H30.001V17.4239H0.000976562V15.8859ZM0.000976562 18.9619H30.001V20.4999H0.000976562V18.9619Z" fill="#D80027"/>
<path d="M0.000488281 0.5H15.0005V11.2661H0.000488281V0.5Z" fill="#2E52B2"/>
<path d="M2.79587 8.62282L2.56195 7.87428L2.30464 8.62282H1.53271L2.15845 9.07311L1.92453 9.82165L2.56195 9.35966L3.18184 9.82165L2.94207 9.07311L3.5795 8.62282H2.79587ZM6.08827 8.62282L5.8485 7.87428L5.60289 8.62282H4.83096L5.45669 9.07311L5.22277 9.82165L5.8485 9.35966L6.48008 9.82165L6.24617 9.07311L6.8719 8.62282H6.08827ZM9.39236 8.62282L9.1409 7.87428L8.90698 8.62282H8.11751L8.76079 9.07311L8.51517 9.82165L9.1409 9.35966L9.78418 9.82165L9.53856 9.07311L10.1643 8.62282H9.39236ZM12.6789 8.62282L12.445 7.87428L12.1994 8.62282H11.4216L12.0532 9.07311L11.8193 9.82165L12.445 9.35966L13.0766 9.82165L12.8251 9.07311L13.4684 8.62282H12.6789ZM5.8485 4.90352L5.60289 5.65206H4.83096L5.45669 6.11405L5.22277 6.85089L5.8485 6.39475L6.48008 6.85089L6.24617 6.11405L6.8719 5.65206H6.08827L5.8485 4.90352ZM2.56195 4.90352L2.30464 5.65206H1.53271L2.15845 6.11405L1.92453 6.85089L2.56195 6.39475L3.18184 6.85089L2.94207 6.11405L3.5795 5.65206H2.79587L2.56195 4.90352ZM9.1409 4.90352L8.90698 5.65206H8.11751L8.76079 6.11405L8.51517 6.85089L9.1409 6.39475L9.78418 6.85089L9.53856 6.11405L10.1643 5.65206H9.39236L9.1409 4.90352ZM12.445 4.90352L12.1994 5.65206H11.4216L12.0532 6.11405L11.8193 6.85089L12.445 6.39475L13.0766 6.85089L12.8251 6.11405L13.4684 5.65206H12.6789L12.445 4.90352ZM2.56195 1.94446L2.30464 2.6813H1.53271L2.15845 3.14329L1.92453 3.88598L2.56195 3.42399L3.18184 3.88598L2.94207 3.14329L3.5795 2.6813H2.79587L2.56195 1.94446ZM5.8485 1.94446L5.60289 2.6813H4.83096L5.45669 3.14329L5.22277 3.88598L5.8485 3.42399L6.48008 3.88598L6.24617 3.14329L6.8719 2.6813H6.08827L5.8485 1.94446ZM9.1409 1.94446L8.90698 2.6813H8.11751L8.76079 3.14329L8.51517 3.88598L9.1409 3.42399L9.78418 3.88598L9.53856 3.14329L10.1643 2.6813H9.39236L9.1409 1.94446ZM12.445 1.94446L12.1994 2.6813H11.4216L12.0532 3.14329L11.8193 3.88598L12.445 3.42399L13.0766 3.88598L12.8251 3.14329L13.4684 2.6813H12.6789L12.445 1.94446Z" fill="white"/>
</g>
</g>
<defs>
<clipPath id="clip0_134_42230">
<rect y="0.5" width="30" height="20" rx="4" fill="white"/>
</clipPath>
<clipPath id="clip1_134_42230">
<rect width="30" height="20" fill="white" transform="translate(0 0.5)"/>
</clipPath>
</defs>
</svg>
