<svg width="237" height="22" viewBox="0 0 237 22" fill="none" xmlns="http://www.w3.org/2000/svg">
<path d="M0.96 11.1C0.92 8.26 1.96 5.83 4.08 3.81C6.2 1.77 8.73 0.779999 11.67 0.839998C13.65 0.839998 15.43 1.31 17.01 2.25C18.59 3.17 19.83 4.47 20.73 6.15L16.8 8.82C15.52 6.66 13.8 5.58 11.64 5.58C10.06 5.58 8.76 6.09 7.74 7.11C6.74 8.13 6.24 9.47 6.24 11.13C6.24 12.75 6.74 14.08 7.74 15.12C8.78 16.12 10.08 16.62 11.64 16.62C13.8 16.62 15.52 15.54 16.8 13.38L20.73 16.05C19.83 17.73 18.59 19.04 17.01 19.98C15.43 20.9 13.64 21.36 11.64 21.36C8.72 21.4 6.19 20.41 4.05 18.39C1.93 16.37 0.9 13.94 0.96 11.1ZM39.9038 1.2L33.1238 13.41V21H27.9638V13.47L21.1538 1.2H26.8538L30.5438 8.1L34.2338 1.2H39.9038ZM57.8709 15.12C57.8709 16.82 57.2309 18.23 55.9509 19.35C54.6909 20.45 53.1009 21 51.1809 21H41.9409V1.2H49.0809C51.0009 1.2 52.5909 1.75 53.8509 2.85C55.1309 3.93 55.7709 5.33 55.7709 7.05C55.7709 8.39 55.3709 9.5 54.5709 10.38C56.7709 11.28 57.8709 12.86 57.8709 15.12ZM48.7509 5.55H46.8909V9.03H48.7509C49.3709 9.03 49.8509 8.87 50.1909 8.55C50.5509 8.23 50.7309 7.81 50.7309 7.29C50.7309 6.77 50.5509 6.35 50.1909 6.03C49.8509 5.71 49.3709 5.55 48.7509 5.55ZM50.8509 16.65C52.1709 16.65 52.8309 16.07 52.8309 14.91C52.8309 13.75 52.1709 13.17 50.8509 13.17H46.8909V16.65H50.8509ZM60.6616 21V1.2H74.4016V5.85H65.8216V8.58H71.9416V12.9H65.8216V16.35H74.7616V21H60.6616ZM95.4961 21H89.7361L85.2661 14.85H83.1361V21H77.9761V1.2H85.7461C87.9661 1.2 89.7961 1.83 91.2361 3.09C92.6761 4.33 93.3961 5.97 93.3961 8.01C93.3961 10.49 92.3561 12.37 90.2761 13.65L95.4961 21ZM83.1361 5.7V10.35H85.7761C86.4961 10.35 87.0661 10.14 87.4861 9.72C87.9261 9.28 88.1461 8.71 88.1461 8.01C88.1461 7.31 87.9261 6.75 87.4861 6.33C87.0661 5.91 86.4961 5.7 85.7761 5.7H83.1361ZM97.5464 21V1.2H104.446C107.526 1.16 110.106 2.06 112.186 3.9C114.266 5.74 115.286 8.12 115.246 11.04C115.286 13.94 114.256 16.34 112.156 18.24C110.076 20.12 107.506 21.04 104.446 21H97.5464ZM102.706 16.35H104.416C106.056 16.35 107.386 15.87 108.406 14.91C109.446 13.95 109.966 12.66 109.966 11.04C109.966 9.4 109.456 8.13 108.436 7.23C107.436 6.33 106.096 5.88 104.416 5.88H102.706V16.35ZM129.941 21L129.221 19.35H122.111L121.391 21H115.841L124.841 0.839998H126.491L135.491 21H129.941ZM127.391 15.21L125.681 10.62L123.941 15.21H127.391ZM139.541 21V5.85H133.601V1.2H150.641V5.85H144.701V21H139.541ZM162.842 21L162.122 19.35H155.012L154.292 21H148.742L157.742 0.839998H159.392L168.392 21H162.842ZM160.292 15.21L158.582 10.62L156.842 15.21H160.292Z" fill="white"/>
<path d="M170.257 20.4C169.617 19.76 169.297 18.96 169.297 18C169.297 17.04 169.617 16.24 170.257 15.6C170.897 14.96 171.717 14.64 172.717 14.64C173.677 14.64 174.467 14.96 175.087 15.6C175.727 16.24 176.047 17.04 176.047 18C176.047 18.96 175.727 19.76 175.087 20.4C174.467 21.04 173.677 21.36 172.717 21.36C171.717 21.36 170.897 21.04 170.257 20.4ZM178.845 21V1.2H186.615C188.835 1.2 190.665 1.83 192.105 3.09C193.545 4.33 194.265 5.97 194.265 8.01C194.265 10.01 193.535 11.65 192.075 12.93C190.615 14.21 188.795 14.85 186.615 14.85H184.005V21H178.845ZM184.005 10.35H186.645C187.365 10.35 187.935 10.14 188.355 9.72C188.795 9.28 189.015 8.71 189.015 8.01C189.015 7.31 188.795 6.75 188.355 6.33C187.935 5.91 187.365 5.7 186.645 5.7H184.005V10.35ZM214.588 21H208.828L204.358 14.85H202.228V21H197.068V1.2H204.838C207.058 1.2 208.888 1.83 210.328 3.09C211.768 4.33 212.488 5.97 212.488 8.01C212.488 10.49 211.448 12.37 209.368 13.65L214.588 21ZM202.228 5.7V10.35H204.868C205.588 10.35 206.158 10.14 206.578 9.72C207.018 9.28 207.238 8.71 207.238 8.01C207.238 7.31 207.018 6.75 206.578 6.33C206.158 5.91 205.588 5.7 204.868 5.7H202.228ZM215.179 11.1C215.119 8.28 216.149 5.85 218.269 3.81C220.409 1.77 222.929 0.779999 225.829 0.839998C228.729 0.779999 231.249 1.77 233.389 3.81C235.549 5.85 236.599 8.28 236.539 11.1C236.599 13.94 235.549 16.37 233.389 18.39C231.249 20.41 228.729 21.4 225.829 21.36C222.909 21.4 220.389 20.41 218.269 18.39C216.149 16.37 215.119 13.94 215.179 11.1ZM231.259 11.1C231.259 9.48 230.739 8.16 229.699 7.14C228.679 6.1 227.399 5.58 225.859 5.58C224.259 5.58 222.959 6.09 221.959 7.11C220.959 8.13 220.459 9.46 220.459 11.1C220.459 12.74 220.959 14.08 221.959 15.12C222.959 16.12 224.259 16.62 225.859 16.62C227.419 16.62 228.709 16.11 229.729 15.09C230.749 14.07 231.259 12.74 231.259 11.1Z" fill="#ED4D33"/>
</svg>
