<svg width="30" height="21" viewBox="0 0 30 21" fill="none" xmlns="http://www.w3.org/2000/svg">
<g clip-path="url(#clip0_134_41307)">
<g clip-path="url(#clip1_134_41307)">
<path d="M0 0.499878H30V20.4999H0V0.499878Z" fill="#003399"/>
<path d="M14.9988 2.7171L15.2482 3.48444H16.0591L15.406 3.95895L15.6519 4.7271L14.9988 4.25258L14.3456 4.7271L14.5951 3.95936L13.9421 3.48484H14.7493L14.9988 2.7171ZM11.6654 3.60599L11.9149 4.37332H12.7258L12.0727 4.84784L12.3185 5.61599L11.6654 5.14147L11.0123 5.61599L11.2618 4.84825L10.6087 4.37373H11.416L11.6654 3.60599ZM9.22098 6.05043L9.47043 6.81777H10.2813L9.62824 7.29229L9.87409 8.06043L9.22098 7.58592L8.56787 8.06043L8.81735 7.29269L8.16428 6.81817H8.97154L9.22098 6.05043ZM8.33209 9.38373L8.58154 10.1511H9.39243L8.73935 10.6257L8.98521 11.3938L8.33209 10.9192L7.67898 11.3938L7.92846 10.626L7.27539 10.1515H8.08265L8.33209 9.38373ZM9.22098 12.7171L9.47043 13.4845H10.2813L9.62824 13.959L9.87409 14.7271L9.22098 14.2526L8.56787 14.7271L8.81735 13.9594L8.16428 13.4848H8.97154L9.22098 12.7171ZM11.6654 15.1615L11.9149 15.9289H12.7258L12.0727 16.4034L12.3185 17.1715L11.6654 16.6971L11.0123 17.1715L11.2618 16.4038L10.6087 15.9293H11.416L11.6654 15.1615ZM18.3321 3.60599L18.5815 4.37332H19.3924L18.7394 4.84784L18.9852 5.61599L18.3321 5.14147L17.6789 5.61599L17.9285 4.84825L17.2754 4.37373H18.0826L18.3321 3.60599ZM20.7765 6.05043L21.026 6.81777H21.8369L21.1838 7.29229L21.4296 8.06043L20.7765 7.58592L20.1234 8.06043L20.3729 7.29269L19.7198 6.81817H20.5271L20.7765 6.05043ZM21.6654 9.38377L21.9149 10.1511H22.7258L22.0727 10.6257L22.3185 11.3938L21.6654 10.9192L21.0123 11.3938L21.2618 10.626L20.6087 10.1515H21.416L21.6654 9.38377ZM20.7765 12.7171L21.026 13.4845H21.8369L21.1838 13.959L21.4296 14.7271L20.7765 14.2526L20.1234 14.7271L20.3729 13.9594L19.7198 13.4848H20.5271L20.7765 12.7171ZM14.9988 16.0504L15.2482 16.8178H16.0591L15.406 17.2923L15.6519 18.0604L14.9988 17.586L14.3456 18.0604L14.5951 17.2927L13.9421 16.8182H14.7493L14.9988 16.0504ZM18.3321 15.1615L18.5815 15.9289H19.3924L18.7394 16.4034L18.9852 17.1715L18.3321 16.697L17.679 17.1715L17.9285 16.4038L17.2754 15.9293H18.0827L18.3321 15.1615Z" fill="#FFCC00"/>
</g>
</g>
<defs>
<clipPath id="clip0_134_41307">
<rect y="0.5" width="30" height="20" rx="4" fill="white"/>
</clipPath>
<clipPath id="clip1_134_41307">
<rect width="30" height="20" fill="white" transform="translate(0 0.5)"/>
</clipPath>
</defs>
</svg>
